<?xml version="1.0" encoding="UTF-8"?>
<svg width="421px" height="144px" viewBox="0 0 421 144" version="1.1" xmlns="http://www.w3.org/2000/svg" xmlns:xlink="http://www.w3.org/1999/xlink">
    <!-- Generator: Sketch 63 (92445) - https://sketch.com -->
    <title>logo</title>
    <desc>Created with Sketch.</desc>
    <g id="Page-1" stroke="none" stroke-width="1" fill="none" fill-rule="evenodd">
        <g id="logo" fill="#FFFFFF" fill-rule="nonzero">
            <path d="M404.4,143.7 C391.8,136.8 378.9,131.7 365.7,127.2 C337.8,118.5 309.3,116.1 280.5,117.9 C254.1,119.7 228.3,125.4 203.1,132.3 C177.9,138.9 152.1,142.8 126.3,141.9 C96,141.3 67.2,134.4 42,117 C25.8,105.9 12.9,91.5 3.9,74.1 C2.7,72 2.1,69.6 0.9,67.2 C2.4,66.6 2.4,67.8 2.7,68.4 C21.6,95.1 48,110.1 79.8,116.7 C105.3,121.8 130.8,120.6 156.3,116.4 C174,113.4 191.4,108 209.1,103.8 C237,97.5 265.2,94.5 293.7,97.2 C334.2,101.1 370.8,114.9 402.6,141.3 C403.2,141.9 403.8,142.5 404.4,143.1 C404.4,142.8 404.4,143.1 404.4,143.7 Z" id="Path"></path>
            <path d="M156.6,21.9 C178.5,24.6 194.7,42.9 194.7,62.1 C194.7,78.9 188.4,90.3 177,99.3 C176.4,99.9 175.5,100.2 174.3,100.5 C164.1,102.9 153.6,104.7 143.1,106.2 C140.1,106.8 138,106.2 135.3,105.3 C114.3,97.2 103.2,75.3 108.6,53.7 C114,32.7 135,18.9 156.6,21.9 Z M151.2,42.3 C139.2,42.3 129.6,52.2 129.6,64.5 C129.6,76.8 138.9,86.4 150.9,86.4 C162.9,86.4 172.5,76.5 172.5,64.5 C172.5,52.2 162.9,42.6 151.2,42.3 Z" id="Combined-Shape"></path>
            <path d="M256.5,83.4 C265.2,77.1 268.5,69 266.1,58.8 C263.7,48.6 254.7,42.3 243.9,42.3 C234.3,42.6 226.2,49.8 224.1,60 C222,69.9 227.1,80.1 236.1,84.6 C237,85.2 237.9,85.2 239.1,85.8 C237.3,87 235.2,86.7 233.4,87 C226.5,88.2 219.6,89.1 212.7,90.9 C210.9,91.5 210.3,90.6 209.4,89.4 C190.8,63 206.4,27 237.9,21.9 C261,18.3 281.7,31.8 287.4,53.4 C290.1,63 289.2,72.9 285.3,82.2 C284.7,83.7 284.1,84.3 282.3,84.3 C275.1,84 267.9,84.3 261,84.3 C259.2,84 257.7,85.2 256.5,83.4 Z" id="Path"></path>
            <path d="M86.7,21 C92.4,21 96.9,21 101.4,21 C103.2,21 104.1,21.3 103.8,23.4 C103.2,35.1 95.4,42.3 83.7,42.3 C81.6,42.3 79.5,42.3 77.4,42.3 C65.4,42.3 55.5,51.9 55.5,64.2 C55.5,76.5 65.1,86.1 77.4,86.1 C80.4,86.1 83.7,86.1 86.4,86.1 C96,86.7 104.1,95.7 103.5,105.6 C103.2,107.7 101.7,107.1 101.1,106.8 C93.3,106.2 85.5,105.3 77.7,103.8 C66.6,101.4 55.5,97.5 45,92.7 C43.2,92.1 42,90.9 41.1,89.4 C22.2,63.9 38.7,25.8 70.2,21.6 C76.2,21 81.9,21.3 86.7,21 Z" id="Path"></path>
            <path d="M365.4,104.7 C354.6,99.6 343.5,95.1 332.1,91.8 C322.5,89.1 313.2,87 303.3,85.8 C301.5,85.5 300.6,84.9 300,83.4 C297.3,78.3 295.8,72.9 295.8,67.2 C295.5,45.9 295.8,24.3 295.5,2.7 C295.5,0.9 296.1,0.6 297.9,0.6 C309.3,1.2 317.7,9.3 317.7,20.7 C317.7,34.8 317.7,48.9 317.7,63 C317.7,76.5 327,85.8 340.5,85.8 C344.4,85.8 348.3,85.2 352.2,86.4 C360,89.1 365.4,96.3 365.4,104.7 Z" id="Path"></path>
            <path d="M382.5,70.2 C382.5,69.3 382.5,68.4 382.5,67.2 C382.2,62.4 384.3,59.1 388.2,57 C392.1,54.9 396.3,55.2 399.9,58.2 C401.1,59.1 401.7,58.8 402.9,57.9 C406.5,55.2 410.4,54.9 414.3,57 C418.2,59.1 420.3,62.7 420.3,67.2 C420.3,69.9 420.3,72.3 420.3,75 C420.3,77.1 419.4,77.1 417.9,76.5 C415.8,75.6 414.9,74.1 414.9,71.7 C414.9,69.9 414.9,68.1 414.9,66.6 C414.9,63.3 412.8,61.2 409.8,60.9 C406.8,60.6 404.4,63 404.4,66.3 C404.1,69.3 404.4,72.3 404.4,75 C404.4,76.8 403.8,76.8 402.3,76.5 C400.2,75.9 399,74.4 399,72 C399,69.9 399,67.8 398.7,65.7 C398.4,62.7 396,60.6 393.6,60.6 C390.6,60.6 388.5,62.7 388.5,65.7 C388.5,67.5 388.5,69.3 388.5,70.8 C388.5,72.6 387.9,73.8 386.7,75 C385.8,75.6 384.9,76.5 383.7,76.2 C382.2,75.6 383.1,74.4 383.1,73.5 C382.5,72.9 382.5,71.4 382.5,70.2 Z" id="Path"></path>
            <path d="M364.2,70.2 C364.2,68.7 364.2,67.5 364.2,66.3 C364.5,60.6 368.7,56.4 374.1,55.8 C375.6,55.8 377.1,55.5 378.3,55.8 C379.2,55.8 380.7,55.2 381,56.4 C381.3,57.6 380.7,58.5 379.8,59.4 C378.6,60.6 377.1,60.6 375.9,60.9 C371.1,61.2 369.6,62.7 369.3,67.8 C369.3,69.6 369.3,70.8 369.3,72.6 C369.3,74.1 368.7,75.3 367.5,76.2 C366.6,76.8 365.4,77.7 364.5,77.1 C363.6,76.5 363.9,75.3 363.9,74.4 C364.2,72.9 364.2,71.4 364.2,70.2 L364.2,70.2 Z" id="Path"></path>
            <path d="M376.8,63.9 C377.4,63.9 377.7,63.9 378.6,63.9 C379.5,64.2 381.3,63.3 381.6,64.5 C381.9,65.7 381,67.2 379.8,68.1 C377.4,69.6 374.7,69.3 372.3,68.7 C371.1,68.4 371.1,67.2 371.1,66 C371.4,64.8 372,64.2 373.2,64.2 C374.4,63.6 375.6,63.9 376.8,63.9 L376.8,63.9 Z" id="Path"></path>
            <path d="M256.5,83.4 C258,84.6 259.5,83.4 261,84 C259.2,84.6 257.1,84.3 254.7,84.6 C255.3,83.7 255.6,83.4 256.5,83.4 Z" id="Path"></path>
        </g>
    </g>
</svg>